<svg xmlns="http://www.w3.org/2000/svg" version="1.1" xmlns:xlink="http://www.w3.org/1999/xlink" width="512" height="512" x="0" y="0" viewBox="0 0 512 512" style="enable-background:new 0 0 512 512" xml:space="preserve" class=""><g transform="matrix(0.7400000000000002,0,0,0.7400000000000002,66.56013005256654,66.5598881231306)"><path fill="#ec6600" d="M144.833 461.171h-79c-8.284 0-15-6.716-15-15v-79c0-8.284 6.716-15 15-15s15 6.716 15 15v64h64c8.284 0 15 6.716 15 15s-6.716 15-15 15z" opacity="1" data-original="#ec6600"></path><path fill="#da5400" d="M55.225 456.775a14.95 14.95 0 0 0 10.608 4.395h79c8.284 0 15-6.716 15-15s-6.716-15-15-15h-64v-.004z" opacity="1" data-original="#da5400"></path><path fill="#ffcf2c" d="M82.863 444.139a15 15 0 0 1-14.355-19.356l40.639-133.93c8.326-27.438 23.443-52.656 43.717-72.93l77.023-77.023C289.793 80.993 358.37 45.973 405.351 27.145 456.34 6.71 492.997.46 494.533.204a14.997 14.997 0 0 1 16.962 18.653c-.414 1.556-10.375 38.665-30.929 87.958a14.997 14.997 0 0 1-5.823 6.902l-58.99 37.331h20.19a15 15 0 0 1 13.212 22.102c-23.836 44.345-50.098 81.005-78.055 108.962l-77.023 77.023c-20.274 20.275-45.494 35.392-72.93 43.717l-133.93 40.64a14.95 14.95 0 0 1-4.354.647z" opacity="1" data-original="#ffcf2c" class=""></path><path fill="#ffa81c" d="M507.603 4.397 72.255 439.745a15.001 15.001 0 0 0 14.962 3.748l133.93-40.64c27.436-8.325 52.655-23.441 72.93-43.717l77.023-77.023c27.957-27.957 54.219-64.617 78.055-108.962a14.999 14.999 0 0 0-13.212-22.102h-20.19l58.99-37.331a14.996 14.996 0 0 0 5.823-6.902c20.554-49.293 30.515-86.402 30.929-87.958a15 15 0 0 0-3.397-13.949c-.161-.177-.328-.344-.495-.512z" opacity="1" data-original="#ffa81c" class=""></path><path fill="#ff9300" d="M15 512a14.95 14.95 0 0 1-10.606-4.394c-5.858-5.857-5.858-15.355 0-21.213L293.166 197.62c5.857-5.857 15.355-5.857 21.213 0s5.858 15.355 0 21.213L25.606 507.606A14.95 14.95 0 0 1 15 512z" opacity="1" data-original="#ff9300"></path><path fill="#ff7403" d="M15 512a14.95 14.95 0 0 0 10.606-4.394l288.772-288.772c5.858-5.857 5.858-15.355 0-21.213L4.394 507.606A14.95 14.95 0 0 0 15 512zM223.021 147.767l-30 30v28.732c0 8.284 6.716 15 15 15s15-6.716 15-15z" opacity="1" data-original="#ff7403"></path><path fill="#ec6600" d="M327.52 325.691h-67.957c-8.284 0-15 6.716-15 15s6.716 15 15 15h37.957z" opacity="1" data-original="#ec6600"></path></g></svg>